<svg width="1600" height="1000" viewBox="0 0 1600 1000" xmlns="http://www.w3.org/2000/svg">
  <defs>
    <linearGradient id="bg" x1="96.98463103929541%" y1="32.89899283371656%" x2="3.015368960704585%" y2="67.10100716628344%">
      <stop offset="0%" stop-color="#312e81" />
      <stop offset="100%" stop-color="#7984f0" />
    </linearGradient>
    <pattern id="dots" width="46" height="46" patternUnits="userSpaceOnUse">
      <circle cx="4" cy="4" r="3" fill="white" opacity="0.08" />
    </pattern>
  </defs>
  <rect width="1600" height="1000" fill="url(#bg)" />
  <rect width="1600" height="1000" fill="url(#dots)" />
  <g transform="translate(1140 560) scale(1.68)" opacity="0.5">
    <g stroke="white" stroke-width="10" fill="none" stroke-linecap="round" stroke-linejoin="round">
        <rect x="-110" y="-110" width="220" height="220" rx="20" />
        <line x1="-70" y1="-150" x2="-70" y2="-110" /><line x1="0" y1="-150" x2="0" y2="-110" /><line x1="70" y1="-150" x2="70" y2="-110" />
        <line x1="-70" y1="110" x2="-70" y2="150" /><line x1="0" y1="110" x2="0" y2="150" /><line x1="70" y1="110" x2="70" y2="150" />
        <line x1="-150" y1="-70" x2="-110" y2="-70" /><line x1="-150" y1="0" x2="-110" y2="0" /><line x1="-150" y1="70" x2="-110" y2="70" />
        <line x1="110" y1="-70" x2="150" y2="-70" /><line x1="110" y1="0" x2="150" y2="0" /><line x1="110" y1="70" x2="150" y2="70" />
      </g>
  </g>
</svg>