<svg width="1600" height="1000" viewBox="0 0 1600 1000" xmlns="http://www.w3.org/2000/svg">
  <defs>
    <linearGradient id="bg" x1="41.31759111665348%" y1="0.7596123493895988%" x2="58.68240888334652%" y2="99.2403876506104%">
      <stop offset="0%" stop-color="#373487" />
      <stop offset="100%" stop-color="#838efa" />
    </linearGradient>
    <pattern id="dots" width="46" height="46" patternUnits="userSpaceOnUse">
      <circle cx="4" cy="4" r="3" fill="white" opacity="0.11" />
    </pattern>
  </defs>
  <rect width="1600" height="1000" fill="url(#bg)" />
  <rect width="1600" height="1000" fill="url(#dots)" />
  <g transform="translate(1200 560) scale(1.8599999999999999)" opacity="0.5">
    <g stroke="white" stroke-width="10" fill="none" stroke-linecap="round" stroke-linejoin="round">
        <rect x="-110" y="-110" width="220" height="220" rx="20" />
        <line x1="-70" y1="-150" x2="-70" y2="-110" /><line x1="0" y1="-150" x2="0" y2="-110" /><line x1="70" y1="-150" x2="70" y2="-110" />
        <line x1="-70" y1="110" x2="-70" y2="150" /><line x1="0" y1="110" x2="0" y2="150" /><line x1="70" y1="110" x2="70" y2="150" />
        <line x1="-150" y1="-70" x2="-110" y2="-70" /><line x1="-150" y1="0" x2="-110" y2="0" /><line x1="-150" y1="70" x2="-110" y2="70" />
        <line x1="110" y1="-70" x2="150" y2="-70" /><line x1="110" y1="0" x2="150" y2="0" /><line x1="110" y1="70" x2="150" y2="70" />
      </g>
  </g>
</svg>